PathFileType	4	(X/Y/Z)	D:\TRACE\v60_Jaco2_6-2-23\JustBodyDRS_Motion2_8-v60.trc
DataRate	CameraRate	NumFrames	NumMarkers	Units	OrigDataRate	OrigDataStartFrame	OrigNumFrames
100.00	100.00	      27	9	mm	100.00	4322	      6914
Frame#	Time	front left toe			Front right toe			aft left toe			aft right toe			Arm			FL body			FR body			AL Body			AR Body			
		X1	Y1	Z1	X2	Y2	Z2	X3	Y3	Z3	X4	Y4	Z4	X5	Y5	Z5	X6	Y6	Z6	X7	Y7	Z7	X8	Y8	Z8	X9	Y9	Z9	

4322	43.210	-215.81877	44.61356	-173.55878	175.08109	28.00875	-228.96472	-158.84883	-4.58392	434.28860	125.48483	12.52479	458.52502	-155.02312	1231.73779	-284.99115	-120.87405	603.15131	-334.54062	39.17123	605.59332	-342.57617	-73.52430	521.06195	606.86365	85.32545	519.01428	601.62335	
4323	43.220	-216.96942	54.15225	-174.89935	174.27243	27.09255	-229.87923	-159.71974	-4.32116	434.32251	123.87504	23.84326	456.24133	-159.06845	1231.98450	-286.19781	-122.50527	602.07751	-336.92609	37.71646	605.22626	-344.87439	-74.06441	522.07043	604.67749	78.82349	518.65454	596.34680	
4324	43.230	-219.30415	66.38876	-177.97935	173.09320	26.09843	-230.29785	-161.13220	-3.26269	434.50385	124.89123	37.40487	452.18143	-161.52901	1232.85901	-288.44635	-123.90367	601.28339	-339.06943	36.42393	604.46912	-347.29614	-74.80525	523.33624	602.46613	77.64890	519.91675	594.20148	
4325	43.240	-221.87607	78.86121	-181.86815	172.07980	25.78797	-230.32639	-162.04608	-2.59921	433.99173	128.94913	50.87617	447.16339	-162.70581	1232.58533	-291.61163	-125.29159	600.87103	-341.20609	35.10633	603.91101	-349.31604	-75.61018	524.29047	600.59576	82.98776	522.83466	595.11414	
4326	43.250	-225.72849	92.19524	-186.38300	170.64374	25.24471	-230.70514	-163.35188	-1.81922	433.85614	132.46590	64.58273	441.46625	-163.43558	1231.01758	-295.38959	-126.37686	600.50647	-343.08386	33.93163	603.76709	-351.25620	-76.33018	524.39685	598.94031	80.50039	524.25464	594.08624	
4327	43.260	-229.33171	105.19559	-191.10803	170.01874	24.91799	-230.94182	-164.31821	-1.49814	433.52972	135.40027	76.68291	435.26434	-164.69672	1228.77893	-299.59155	-127.53445	600.03619	-344.95267	33.27435	603.37592	-353.05389	-78.80061	524.54370	596.93610	76.45805	521.10211	588.53613	
4328	43.270	-232.75471	117.72982	-195.73311	168.68224	24.07392	-231.44400	-165.04587	-0.98193	433.04831	138.85132	89.11121	428.53488	-166.78529	1227.17383	-303.68021	-128.84106	598.89240	-346.86411	31.36273	602.66388	-355.07040	-80.36691	525.08020	595.14606	74.42682	521.30377	586.12305	
4329	43.280	-235.63339	129.38470	-200.36821	167.71202	23.43783	-231.92438	-166.41933	-0.33335	432.66660	139.25307	100.86668	421.98270	-167.82387	1226.92639	-305.89801	-130.05377	597.81854	-348.83679	30.38066	601.47729	-356.81021	-82.20705	525.88580	593.44714	78.27921	524.36230	587.06329	
4330	43.290	-238.40515	140.41551	-204.48705	166.74454	22.99447	-232.22237	-168.59709	0.97016	432.52762	138.28294	112.63542	416.22614	-170.14510	1227.10364	-308.53598	-131.30846	596.54364	-350.53177	28.97285	600.40851	-358.22403	-84.29715	526.99036	592.03284	76.60523	525.38690	585.70465	
4331	43.300	-241.02707	149.45988	-208.49675	165.55063	22.49593	-232.42523	-169.34766	1.62891	432.15884	136.82481	123.29444	411.53427	-171.49983	1226.67834	-310.24854	-132.80013	595.58777	-352.14050	27.40598	599.28552	-359.84677	-86.08739	528.24225	590.82373	69.69715	523.85504	580.90308	
4332	43.310	-244.51178	155.61818	-211.68771	164.35176	21.90147	-232.54462	-170.80919	2.64427	431.70633	134.32693	130.13667	407.62787	-173.28207	1225.46777	-313.27539	-134.21779	594.59082	-353.74750	25.63879	598.29736	-361.07028	-88.30218	529.63757	589.21198	67.08065	524.91498	579.62653	
4333	43.320	-247.45729	159.38181	-214.47054	163.07664	21.26220	-232.97189	-171.98785	3.06227	431.55197	133.06059	133.66124	405.02753	-174.54303	1224.06592	-316.57315	-135.65741	593.83765	-355.16122	24.15618	597.13678	-362.41141	-90.53809	530.71759	587.82959	67.58627	529.54291	582.84045	
4334	43.330	-250.54918	160.00865	-217.15985	162.12836	20.68533	-233.23792	-173.03703	3.76333	431.20453	131.95877	134.73114	402.58395	-175.07289	1222.66895	-320.01288	-137.01472	592.99585	-356.77072	22.85760	596.27319	-363.68082	-92.92711	531.67932	586.40845	65.23885	530.46826	582.07593	
4335	43.340	-253.88664	157.62254	-219.39008	161.05470	20.35409	-233.53795	-173.96165	4.16456	430.76581	130.65257	133.84622	399.92566	-175.90800	1221.90198	-323.52170	-138.29254	592.11774	-357.94843	21.75134	595.44281	-365.21527	-95.49809	532.72290	585.24072	62.46583	531.24750	581.04047	
4336	43.350	-257.54074	153.80684	-221.72046	159.73576	19.88746	-233.68271	-175.38962	5.07141	430.77243	129.11246	131.13080	397.05215	-176.84111	1221.57825	-326.35681	-140.00241	591.54053	-359.31039	20.37505	594.57825	-366.24280	-98.31831	533.61395	584.46387	60.05998	532.41650	579.99420	
4337	43.360	-260.32773	148.74500	-224.54419	158.65605	19.43044	-233.84375	-175.98297	5.37673	430.31595	127.30892	126.70916	393.96304	-178.24167	1221.32776	-329.19370	-141.44679	590.93036	-360.86411	18.72112	594.09595	-367.68134	-101.25266	535.06226	582.73132	57.27433	533.44421	578.96539	
4338	43.370	-262.51318	142.67729	-227.62703	157.37900	18.89717	-234.14879	-177.60004	6.74098	429.77487	125.21245	120.70564	390.65796	-179.89775	1220.62097	-331.06342	-143.15915	590.21399	-362.63452	17.24418	593.18890	-369.04376	-104.27611	536.16998	581.25983	54.40900	534.66803	577.70056	
4339	43.380	-264.77432	135.43620	-231.20932	156.60185	18.56624	-234.33533	-178.62440	7.18325	429.55756	122.79349	113.24454	387.13638	-180.71385	1220.28650	-333.49512	-144.88451	589.55591	-364.19550	15.68247	592.29083	-370.31369	-107.23322	537.17596	579.90771	51.50813	535.35736	576.25427	
4340	43.390	-267.18652	127.35990	-235.15878	155.43851	18.08537	-234.65819	-179.40125	7.39156	429.12799	120.02255	104.45016	383.39801	-182.00909	1219.75378	-336.11127	-145.88287	588.50970	-365.33240	14.04108	591.56708	-371.70938	-110.08353	537.82428	578.69464	48.57096	536.12469	575.17639	
4341	43.400	-270.24747	118.91372	-239.62747	154.41299	17.72075	-234.79063	-180.92308	8.33553	428.81870	116.87011	94.44682	379.44232	-183.31215	1219.12646	-338.38263	-148.00281	588.15790	-367.17300	12.37550	590.95734	-373.10602	-113.11671	538.58081	576.99243	45.67787	536.87549	574.08405	
4342	43.410	-273.68332	110.23759	-244.42860	153.18211	17.21658	-235.19043	-181.91632	8.80690	428.64047	113.30663	83.35880	375.26892	-184.18640	1218.77808	-341.09262	-149.71568	587.86292	-368.83185	10.57089	590.35297	-374.83441	-115.67349	539.33887	575.79004	42.92398	537.36090	573.03424	
4343	43.420	-277.01340	101.29511	-249.13226	152.20728	16.72334	-235.15570	-183.27071	9.74559	428.19131	109.53107	71.76220	371.04190	-184.92577	1218.44641	-343.99265	-151.33568	587.36481	-370.57031	9.11708	589.58392	-375.97089	-119.20366	539.98590	573.66656	39.70627	537.68359	571.30151	
4344	43.430	-279.98328	92.26148	-253.58163	151.11493	16.31545	-235.59070	-184.75478	10.60517	427.65784	106.28256	61.25526	367.29077	-185.88148	1217.84570	-346.62573	-152.98730	587.17432	-372.54321	7.09180	589.06757	-377.81265	-122.46511	540.55902	571.95856	32.57008	535.66132	566.73260	
4345	43.440	-282.96121	83.42391	-257.33997	150.09250	15.79103	-235.71843	-185.36925	10.83325	427.49326	101.38666	52.05370	362.97513	-187.05226	1217.26880	-349.14075	-154.87163	586.58368	-374.70435	5.36329	588.29346	-379.55020	-125.77775	541.11505	569.93988	29.31903	535.87891	565.03674	
4346	43.450	-285.59821	74.04394	-260.55988	148.87352	15.31516	-236.08356	-186.38860	11.21072	427.05310	96.84241	43.14038	359.95746	-187.97302	1217.15698	-351.94254	-156.70998	585.90717	-376.91702	3.27471	587.34741	-381.62570	-129.19981	541.46539	567.94757	26.32299	535.81598	562.75372	
4347	43.460	-288.91516	65.33961	-263.23541	147.80203	14.95203	-236.29901	-187.51918	12.03141	426.64526	91.74454	34.34757	357.95316	-187.98573	1217.51770	-355.35773	-157.72958	585.02704	-378.65714	1.92198	586.72357	-383.47565	-132.76260	541.99817	565.80542	23.05326	536.76776	561.33600	
4348	43.470	-291.85153	57.16304	-265.71783	146.87636	14.58128	-236.50916	-188.98895	13.06775	426.33020	87.20993	26.57564	356.49316	-189.39784	1217.14099	-358.24390	-160.36189	585.00079	-381.58472	-0.29033	586.17969	-385.48456	-136.23717	542.32410	563.32599	19.21848	536.88422	559.34003	
